<svg xmlns="http://www.w3.org/2000/svg" width="25" height="24" viewBox="0 0 25 24">
    <path d="M24.5253 8.99383L17.9026 0.788321C17.4251 0.197827 16.6711 -0.0925312 15.9234 0.0261802L5.54281 1.68946C4.79523 1.80982 4.1682 2.32172 3.89763 3.03257L0.139659 12.9014C-0.130492 13.6123 -0.00319484 14.414 0.473666 15.0051L7.09633 23.2184C7.57582 23.8065 8.3303 24.0938 9.07707 23.9727L19.4577 22.3079C20.2053 22.1887 20.8327 21.6771 21.1029 20.9663L24.8608 11.0975C25.1306 10.3863 25.0027 9.58456 24.5253 8.99383Z" fill="#F24444"/>
    <path fill-rule="evenodd" clip-rule="evenodd" d="M17.0382 2.65768L22.6012 9.5034C23.0022 9.99624 23.1097 10.6652 22.8831 11.2585L19.7264 19.4918C19.4994 20.0849 18.9725 20.5117 18.3445 20.6111L9.62473 22C8.99746 22.1011 8.36369 21.8614 7.96091 21.3707L2.39788 14.5185C1.99732 14.0254 1.89039 13.3565 2.11731 12.7634L5.27401 4.53003C5.50129 3.93698 6.028 3.5099 6.65596 3.40949L15.3757 2.02184C16.0037 1.9228 16.6371 2.16504 17.0382 2.65768ZM11.0681 12.8174C10.7057 13.3022 10.1742 13.5446 9.47381 13.5446C8.80189 13.5446 8.28267 13.2959 7.91617 12.7985C7.54966 12.3011 7.36641 11.5823 7.36641 10.6421C7.36641 8.72394 8.06888 7.76484 9.47381 7.76484C10.162 7.76484 10.6904 8.01354 11.059 8.51092C11.4275 9.00831 11.6118 9.71871 11.6118 10.6421C11.6118 11.6075 11.4305 12.3326 11.0681 12.8174ZM11.0373 16.7629C10.9247 16.972 10.7064 17.1024 10.4689 17.1024C9.98052 17.1024 9.66906 16.5811 9.90049 16.1511L14.1597 8.2372C14.2722 8.02806 14.4905 7.89763 14.728 7.89763C15.2164 7.89763 15.5279 8.41897 15.2964 8.849L11.0373 16.7629ZM9.48069 12.24C9.27708 12.24 9.12946 12.1088 9.03783 11.8465C8.9462 11.5842 8.90039 11.1865 8.90039 10.6534C8.90039 10.1203 8.9462 9.72474 9.03783 9.4666C9.12946 9.20846 9.27708 9.07939 9.48069 9.07939C9.87163 9.07939 10.0671 9.60406 10.0671 10.6534C10.0671 11.7111 9.87163 12.24 9.48069 12.24ZM17.323 16.4887C16.9606 16.9735 16.4291 17.2159 15.7287 17.2159C15.0568 17.2159 14.5376 16.9672 14.171 16.4698C13.8045 15.9724 13.6213 15.2557 13.6213 14.3197C13.6213 12.4015 14.3238 11.4424 15.7287 11.4424C16.4169 11.4424 16.9453 11.6911 17.3138 12.1885C17.6824 12.6859 17.8666 13.3963 17.8666 14.3197C17.8666 15.2809 17.6854 16.0039 17.323 16.4887ZM15.7438 15.9191C15.5402 15.9191 15.3925 15.7879 15.3009 15.5256C15.2093 15.2633 15.1635 14.8656 15.1635 14.3325C15.1635 13.7994 15.2093 13.4038 15.3009 13.1457C15.3925 12.8876 15.5402 12.7585 15.7438 12.7585C16.1347 12.7585 16.3302 13.2832 16.3302 14.3325C16.3302 15.3902 16.1347 15.9191 15.7438 15.9191Z" fill="#0F2161"/>
</svg>